<svg xmlns="http://www.w3.org/2000/svg" viewBox="0 0 140.96 140.79"><defs><style>.cls-1{fill:#fafafa;}</style></defs><title>アセット 2</title><g id="レイヤー_2" data-name="レイヤー 2"><g id="レイヤー_1-2" data-name="レイヤー 1"><path class="cls-1" d="M93.61,123.29a66.41,66.41,0,0,0,4.49-5.81c2.67-3.84,5.37-7.71,7.82-11.71l1.5-2.36c1-1.57,2-3.15,3-4.74S128.25,68.2,130,64.94c.89-1.63,1.79-3.26,2.67-4.89l2.63-4.91c1.74-3.29,3.48-6.57,5.16-9.88l.08-.17A1,1,0,0,0,138.84,44l-.11.14-6.65,8.93-6.6,9-6.57,9S94.7,103.53,92.45,106.4c0,0-1.61,2.06-1.68,2.16C77,126.11,52.83,133.27,33.06,120.82A42.26,42.26,0,0,1,25.74,115,42.64,42.64,0,0,1,13.48,85.31c-.05-13.54,6.3-25.19,16.58-33.65L32.18,50l2.15-1.69c2.86-2.26,5.78-4.49,8.7-6.71,1.46-1.12,2.94-2.22,4.41-3.32S87.58,8.58,87.58,8.58l8.93-6.65.09-.07A1,1,0,0,0,95.51.12l-.1.05C92.1,1.85,88.82,3.6,85.54,5.34L80.63,8l-4.89,2.68c-3.25,1.79-6.5,3.59-9.72,5.44s-6.46,3.68-9.66,5.58c-1.6.95-17.49,10.63-19.06,11.64s-3.15,2-4.71,3-3.13,2-4.68,3.12l-2.33,1.59-2.33,1.62A52.38,52.38,0,0,0,.6,78.61,52.9,52.9,0,0,0,0,84.89a55.52,55.52,0,0,0,.16,6.32,54.18,54.18,0,0,0,2.52,12.4,51.7,51.7,0,0,0,2.34,5.9,54.62,54.62,0,0,0,3,5.6,55.63,55.63,0,0,0,7.66,9.74l.21.21a56.44,56.44,0,0,0,9.74,7.67,54.48,54.48,0,0,0,23.91,7.87,57.92,57.92,0,0,0,6.32.16,55.05,55.05,0,0,0,6.29-.57,53.5,53.5,0,0,0,23.14-9.32A48.18,48.18,0,0,0,93.61,123.29Z"/><path class="cls-1" d="M61.41,37.46a50.76,50.76,0,0,1,16.84,4.23,1,1,0,0,0,1.2-.27L113.73,1.73A1,1,0,0,0,112.36.21L60.9,35.59A1,1,0,0,0,61.41,37.46Z"/><path class="cls-1" d="M139.25,27.26,99.56,61.53a1,1,0,0,0-.27,1.2,50.76,50.76,0,0,1,4.23,16.84,1,1,0,0,0,1.87.51l35.38-51.46A1,1,0,0,0,139.25,27.26Z"/><circle class="cls-1" cx="57.35" cy="83.63" r="35.79"/></g></g></svg>